Coordinates
version=1
nRows=65
nColumns=12
inDegrees=yes

Units are S.I. units (second, meters, Newtons, ...)
Angles are in degrees

endheader
time	SC_y	SC_z	SC_x	AC_y	AC_z	AC_x	GH_y	GH_z	GH_yy	EL_x	PS_y
       0.0              -55.42         -4.151          46.59          35.89          2.423          3.814          168.3           71.3           1.36          134.9          15.72
   0.02977              -55.42          -4.15          46.58          35.89          2.422          3.811          168.3          71.29          1.368          134.8          15.74
   0.05954              -55.42          -4.15          46.57           35.9           2.42          3.807          168.3          71.29          1.376          134.8          15.75
   0.08931              -55.41         -4.149          46.57           35.9          2.418          3.804          168.3          71.29          1.385          134.8          15.77
    0.1191              -55.41         -4.149          46.56           35.9          2.417          3.801          168.3          71.28          1.394          134.8          15.79
    0.1488              -55.41         -4.148          46.55           35.9          2.415          3.797          168.3          71.28          1.404          134.8          15.81
    0.1786              -55.41         -4.148          46.54           35.9          2.413          3.793          168.3          71.27          1.415          134.8          15.83
    0.2084               -55.4         -4.147          46.53           35.9          2.411          3.788          168.3          71.27          1.426          134.7          15.85
    0.2381               -55.4         -4.146          46.52           35.9          2.408          3.784          168.3          71.27          1.438          134.7          15.88
    0.2679               -55.4         -4.146          46.51          35.91          2.406          3.779          168.3          71.26          1.451          134.7           15.9
    0.2977               -55.4         -4.145           46.5          35.91          2.403          3.773          168.3          71.26          1.465          134.7          15.93
    0.3275              -55.39         -4.144          46.48          35.91            2.4          3.768          168.3          71.25           1.48          134.6          15.96
    0.3572              -55.39         -4.143          46.47          35.91          2.397          3.761          168.3          71.24          1.496          134.6          15.99
     0.387              -55.39         -4.142          46.45          35.92          2.394          3.755          168.3          71.24          1.513          134.6          16.03
    0.4168              -55.38         -4.141          46.44          35.92           2.39          3.747          168.3          71.23          1.532          134.5          16.06
    0.4465              -55.38          -4.14          46.42          35.92          2.386          3.739          168.3          71.22          1.553          134.5           16.1
    0.4763              -55.37         -4.139           46.4          35.92          2.382          3.731          168.3          71.21          1.575          134.5          16.15
    0.5061              -55.37         -4.137          46.38          35.93          2.377          3.722          168.3           71.2          1.599          134.4           16.2
    0.5358              -55.36         -4.136          46.35          35.93          2.372          3.711          168.2          71.19          1.626          134.4          16.25
    0.5656              -55.36         -4.134          46.33          35.94          2.367            3.7          168.2          71.18          1.655          134.3          16.31
    0.5954              -55.35         -4.133           46.3          35.94          2.361          3.688          168.2          71.17          1.687          134.2          16.37
    0.6251              -55.34         -4.131          46.27          35.95          2.354          3.674          168.2          71.16          1.722          134.2          16.44
    0.6549              -55.33         -4.128          46.24          35.95          2.347           3.66          168.2          71.14           1.76          134.1          16.52
    0.6847              -55.32         -4.126           46.2          35.96          2.339          3.643          168.2          71.12          1.803          134.0           16.6
    0.7144              -55.31         -4.124          46.16          35.97           2.33          3.625          168.2           71.1          1.851          133.9           16.7
    0.7442               -55.3         -4.121          46.11          35.97          2.319          3.604          168.2          71.08          1.904          133.8          16.81
     0.774              -55.29         -4.117          46.06          35.98          2.308          3.581          168.2          71.06          1.963          133.7          16.92
    0.8037              -55.28         -4.114           46.0          35.99          2.295          3.555          168.2          71.03           2.03          133.6          17.06
    0.8335              -55.26         -4.109          45.93           36.0          2.281          3.526          168.1          71.01          2.106          133.5          17.21
    0.8633              -55.24         -4.105          45.86          36.02          2.265          3.493          168.1          70.97          2.192          133.3          17.38
    0.8931              -55.22         -4.099          45.77          36.03          2.246          3.455          168.1          70.93           2.29          133.1          17.58
    0.9228               -55.2         -4.093          45.67          36.05          2.224          3.412          168.1          70.89          2.403          132.9           17.8
    0.9526              -55.17         -4.086          45.56          36.07            2.2          3.362          168.0          70.84          2.532          132.7          18.06
    0.9824              -55.14         -4.078          45.43          36.09          2.171          3.304          168.0          70.78          2.683          132.4          18.36
     1.012               -55.1         -4.068          45.27          36.12          2.137          3.236          168.0          70.71           2.86          132.1          18.71
     1.042              -55.06         -4.056          45.09          36.15          2.097          3.155          167.9          70.63          3.068          131.7          19.13
     1.072               -55.0         -4.043          44.88          36.18           2.05           3.06          167.9          70.53          3.316          131.2          19.62
     1.101              -54.94         -4.026          44.62          36.23          1.994          2.946          167.8          70.42          3.613          130.6          20.21
     1.131              -54.87         -4.007           44.3          36.28          1.925          2.808          167.7          70.28          3.971          130.0          20.93
     1.161              -54.77         -3.982          43.92          36.34          1.842          2.639          167.6          70.11           4.41          129.2           21.8
     1.191              -54.66         -3.953          43.44          36.43          1.739           2.43          167.5           69.9          4.951          128.1          22.88
     1.221              -54.52         -3.915          42.85          36.53           1.61           2.17          167.3          69.63          5.626          126.9          24.23
      1.25              -54.34         -3.869          42.11          36.65          1.448          1.843          167.1           69.3          6.476          125.3          25.93
      1.28              -54.11         -3.809          41.16          36.81          1.242          1.426          166.9          68.88          7.556          123.3          28.08
      1.31              -53.82         -3.733          39.95          37.02         0.9785         0.8933          166.6          68.34           8.94          120.7          30.84
      1.34              -53.44         -3.635           38.4          37.28         0.6402         0.2094          166.2          67.65          10.71          117.4          34.38
     1.369              -52.96          -3.51          36.42          37.62         0.2081        -0.6642          165.6          66.77          12.98          113.1          38.91
     1.399              -52.36         -3.353          33.92          38.04        -0.3353         -1.763          165.0          65.66          15.83          107.8          44.59
     1.429              -51.62         -3.161          30.88          38.55        -0.9974         -3.101          164.2           64.3          19.31          101.3          51.52
     1.459              -50.77         -2.939          27.36          39.15         -1.765         -4.653          163.3          62.73          23.33          93.81          59.56
     1.488              -49.85         -2.699          23.54           39.8         -2.596         -6.333          162.2          61.03          27.69          85.67          68.26
     1.518              -48.93         -2.459          19.72          40.44         -3.427         -8.013          161.2          59.33          32.05          77.53          76.96
     1.548              -48.07         -2.237           16.2          41.04         -4.194         -9.564          160.3          57.76          36.08          70.01          84.99
     1.578              -47.34         -2.045          13.16          41.55         -4.857          -10.9          159.5          56.41          39.55          63.52          91.92
     1.607              -46.74         -1.888          10.66          41.98           -5.4          -12.0          158.9           55.3           42.4          58.19          97.61
     1.637              -46.26         -1.763          8.679          42.31         -5.832         -12.87          158.3          54.42          44.67          53.96          102.1
     1.667              -45.88         -1.665          7.125          42.58          -6.17         -13.56          157.9          53.72          46.45          50.64          105.7
     1.697              -45.59         -1.589          5.915          42.78         -6.434         -14.09          157.6          53.18          47.83          48.06          108.4
     1.727              -45.36          -1.53          4.969          42.94          -6.64         -14.51          157.4          52.76          48.91          46.04          110.6
     1.756              -45.18         -1.483          4.225          43.07         -6.802         -14.84          157.2          52.43          49.76          44.45          112.3
     1.786              -45.04         -1.446          3.634          43.17          -6.93          -15.1          157.0          52.17          50.44          43.19          113.6
     1.816              -44.92         -1.416          3.161          43.25         -7.034          -15.3          156.9          51.96          50.98          42.18          114.7
     1.846              -44.83         -1.392          2.777          43.31         -7.117         -15.47          156.8          51.79          51.41          41.36          115.6
     1.875              -44.75         -1.372          2.463          43.37         -7.186         -15.61          156.7          51.65          51.77          40.69          116.3
     1.905              -44.69         -1.355          2.203          43.41         -7.242         -15.73          156.6          51.53          52.07          40.14          116.9
